<svg width="48" height="48" viewBox="0 0 48 48" fill="none" xmlns="http://www.w3.org/2000/svg">
<circle opacity="0.08" cx="24" cy="24" r="24" fill="#111111"/>
<path d="M32 24.4855C32 24.8652 31.7178 25.179 31.3518 25.2287L31.25 25.2355L18.066 25.2349L22.829 29.9785C23.1225 30.2707 23.1235 30.7456 22.8313 31.0391C22.5656 31.306 22.149 31.3311 21.8549 31.1138L21.7706 31.0414L15.7206 25.0174C15.6819 24.9789 15.6483 24.9372 15.6198 24.8932C15.6117 24.8799 15.6035 24.8663 15.5958 24.8525C15.5886 24.8407 15.5822 24.8283 15.5761 24.8159C15.5676 24.7978 15.5593 24.7791 15.5518 24.76C15.5457 24.7453 15.5406 24.731 15.536 24.7165C15.5304 24.6986 15.5251 24.6796 15.5204 24.6602C15.517 24.6467 15.5143 24.6337 15.5119 24.6206C15.5086 24.6012 15.5057 24.5811 15.5037 24.5607C15.502 24.5452 15.5009 24.5298 15.5003 24.5145C15.5002 24.5051 15.5 24.4954 15.5 24.4855L15.5004 24.4565C15.5009 24.4418 15.502 24.4271 15.5034 24.4124L15.5 24.4855C15.5 24.4382 15.5044 24.3919 15.5128 24.347C15.5147 24.3363 15.517 24.3253 15.5196 24.3143C15.5249 24.2917 15.5311 24.27 15.5382 24.2487C15.5416 24.2381 15.5457 24.2268 15.55 24.2155C15.5588 24.193 15.5683 24.1715 15.5788 24.1505C15.5837 24.1407 15.5891 24.1303 15.5948 24.1201C15.6042 24.1035 15.6139 24.0876 15.6241 24.0722C15.6313 24.0613 15.6393 24.0499 15.6476 24.0387L15.6541 24.0301C15.6743 24.0037 15.6962 23.9787 15.7197 23.9552L15.7206 23.9545L21.7706 17.9295C22.0641 17.6372 22.5389 17.6382 22.8312 17.9317C23.0969 18.1985 23.1203 18.6152 22.9018 18.9084L22.829 18.9924L18.068 23.7349L31.25 23.7355C31.6642 23.7355 32 24.0713 32 24.4855Z" fill="#111111"/>
</svg>
