<svg width="25" height="24" viewBox="0 0 25 24" fill="none" xmlns="http://www.w3.org/2000/svg">
<path d="M24.3068 10.142C24.4135 10.142 24.5 10.2285 24.5 10.3351V12.3633C24.5 13.1224 24.4295 13.8646 24.2942 14.5846C23.2481 20.1772 18.3211 24.4037 12.4154 24.363C5.7887 24.3173 0.485358 18.963 0.50003 12.3362C0.514608 5.72137 5.8817 0.363281 12.5 0.363281C15.7425 0.363281 18.6844 1.64962 20.8444 3.73912C20.9224 3.81455 20.9244 3.93886 20.8477 4.01555L17.9784 6.88481C17.9045 6.95869 17.7852 6.96061 17.7095 6.88856C16.3538 5.59814 14.5196 4.80591 12.5 4.80591C8.32947 4.80591 4.97111 8.14041 4.9428 12.3108C4.91434 16.5086 8.30884 19.9206 12.5 19.9206C15.9005 19.9206 18.7767 17.6742 19.7251 14.5846H12.6932C12.5865 14.5846 12.5 14.4981 12.5 14.3914V10.3351C12.5 10.2284 12.5865 10.1419 12.6932 10.1419H24.3068V10.142Z" fill="#2196F3"/>
<path d="M24.3073 10.1426H22.8587C22.9653 10.1426 23.0518 10.2291 23.0518 10.3358V12.3639C23.0518 13.123 22.9813 13.8652 22.8461 14.5852C21.8481 19.9206 17.3178 24.0126 11.7754 24.3422C11.9875 24.3547 12.2009 24.3621 12.4159 24.3636C18.3217 24.4043 23.2487 20.1778 24.2948 14.5852C24.43 13.8652 24.5005 13.123 24.5005 12.3639V10.3357C24.5005 10.2291 24.414 10.1426 24.3073 10.1426Z" fill="#1E88E5"/>
<path d="M5.63663 9.19837L1.99219 6.56512C4.03678 2.86711 7.97672 0.363281 12.501 0.363281C15.7435 0.363281 18.6855 1.64962 20.8454 3.73912C20.9234 3.81455 20.9254 3.93886 20.8487 4.01555L17.9794 6.88481C17.9057 6.95855 17.7863 6.96084 17.7108 6.88894C16.3552 5.59828 14.5208 4.80595 12.501 4.80595C9.45731 4.80595 6.83372 6.6052 5.63663 9.19837Z" fill="#F44336"/>
<path d="M4.58398 8.4389L5.63609 9.19907C6.72875 6.83216 9.01006 5.1275 11.7143 4.84789C11.7346 4.84569 11.7542 4.84302 11.7749 4.84105C11.5369 4.81845 11.2957 4.80664 11.0518 4.80664C8.30225 4.80664 5.906 6.25616 4.58398 8.4389Z" fill="#E53935"/>
<path d="M19.3958 3.73912C19.4738 3.81455 19.4758 3.93886 19.3991 4.01559L17.0702 6.34448C17.2933 6.51417 17.5069 6.69567 17.7096 6.88861C17.7852 6.96066 17.9046 6.95873 17.9785 6.88486L20.8478 4.01559C20.9245 3.93886 20.9224 3.81459 20.8445 3.73912C18.6845 1.64962 15.7426 0.363281 12.5001 0.363281C12.2568 0.363281 12.0154 0.371391 11.7756 0.385688C14.7306 0.561703 17.3979 1.80638 19.3958 3.73912Z" fill="#E53935"/>
<path d="M21.3017 20.5177C19.1103 22.8824 15.9773 24.3625 12.499 24.3625C7.80089 24.3625 3.73345 21.6626 1.76367 17.7294L5.48438 15.1797C6.60089 17.9578 9.32105 19.9198 12.499 19.9198C14.4933 19.9198 16.3071 19.1472 17.6573 17.8849L21.3017 20.5177Z" fill="#4CAF50"/>
<path d="M5.48583 15.1797L4.38867 15.9315C5.66297 18.3055 8.16886 19.9198 11.0517 19.9198C11.2955 19.9198 11.5365 19.9078 11.7744 19.8853C8.91272 19.6125 6.51623 17.7437 5.48583 15.1797Z" fill="#43A047"/>
<path d="M12.5001 24.3627C15.9784 24.3627 19.1115 22.8827 21.3029 20.5179L20.4102 19.873C18.3526 22.4338 15.2659 24.1326 11.7776 24.3409C12.0167 24.3551 12.2575 24.3627 12.5001 24.3627Z" fill="#43A047"/>
<path d="M4.94267 12.3626C4.94267 13.3583 5.13533 14.3092 5.48544 15.1798L1.76469 17.7295C0.955391 16.1147 0.5 14.2918 0.5 12.3626C0.5 10.2596 1.04084 8.28308 1.99119 6.56445L5.63562 9.1977C5.19088 10.1601 4.94267 11.2326 4.94267 12.3626Z" fill="#FFC107"/>
<path d="M4.38846 15.9317L5.48562 15.1798C5.13551 14.3092 4.94285 13.3583 4.94285 12.3626C4.94285 11.2326 5.19105 10.1601 5.6358 9.19767L4.58369 8.4375C3.90049 9.56555 3.50398 10.8893 3.49432 12.3102C3.48541 13.6205 3.81012 14.8543 4.38846 15.9317Z" fill="#FFB300"/>
</svg>
